<?xml version="1.0" encoding="utf-8"?>

<!DOCTYPE svg PUBLIC "-//W3C//DTD SVG 1.1//EN" "http://www.w3.org/Graphics/SVG/1.1/DTD/svg11.dtd">
<svg version="1.1" id="Layer_1" xmlns="http://www.w3.org/2000/svg" xmlns:xlink="http://www.w3.org/1999/xlink" x="0px" y="0px"
	 viewBox="0 0 2226 1654.26" enable-background="new 0 0 2226 1654.26" xml:space="preserve">
<path d="M381.064,1065.309h35.7v1.262h52.829v-1.262h31.372v1.262h52.828v-1.262h34.438v1.262h52.829v-1.262h35.88V952.44h2.705
	v-28.488H378.36v28.488h2.705V1065.309z M615.998,971.552c12.08,0.721,21.636,10.818,21.636,23.079v1.803h-21.636V971.552z
	 M615.998,999.319h21.636v14.064h-21.636V999.319z M615.998,1016.087h21.636v14.063h-21.636V1016.087z M615.998,1033.035h21.636
	v14.064h-21.636V1033.035z M615.998,1049.983h21.636v13.162h-21.636V1049.983z M591.657,994.631
	c0-12.261,9.556-22.357,21.636-23.079v24.882h-21.636V994.631z M591.657,999.319h21.636v14.064h-21.636V999.319z M591.657,1016.087
	h21.636v14.063h-21.636V1016.087z M591.657,1033.035h21.636v14.064h-21.636V1033.035z M591.657,1049.983h21.636v13.162h-21.636
	V1049.983z M528.551,971.552c12.08,0.721,21.636,10.818,21.636,23.079v1.803h-21.636V971.552z M528.551,999.319h21.636v14.064
	h-21.636V999.319z M528.551,1016.087h21.636v14.063h-21.636V1016.087z M528.551,1033.035h21.636v14.064h-21.636V1033.035z
	 M528.551,1049.983h21.636v13.162h-21.636V1049.983z M504.21,994.631c0-12.261,9.556-22.357,21.636-23.079v24.882H504.21V994.631z
	 M504.21,999.319h21.636v14.064H504.21V999.319z M504.21,1016.087h21.636v14.063H504.21V1016.087z M504.21,1033.035h21.636v14.064
	H504.21V1033.035z M504.21,1049.983h21.636v13.162H504.21V1049.983z M444.53,971.552c12.08,0.721,21.636,10.818,21.636,23.079v1.803
	H444.53V971.552z M444.53,999.319h21.636v14.064H444.53V999.319z M444.53,1016.087h21.636v14.063H444.53V1016.087z M444.53,1033.035
	h21.636v14.064H444.53V1033.035z M444.53,1049.983h21.636v13.162H444.53V1049.983z M420.19,994.631
	c0-12.261,9.556-22.357,21.636-23.079v24.882H420.19V994.631z M420.19,999.319h21.636v14.064H420.19V999.319z M420.19,1016.087
	h21.636v14.063H420.19V1016.087z M420.19,1033.035h21.636v14.064H420.19V1033.035z M420.19,1049.983h21.636v13.162H420.19V1049.983z
	 M152.982,223.299v-56.254c0-23.689,17.755-43.196,40.688-45.983c-0.662-2.389-0.124-4.712,1.142-6.485
	c-3.435-4.81-0.386-11.365,5.229-11.9V68.059c-2.997-0.545-4.519-4.193-2.524-6.851c-16.626-7.824-12.528-34.077,8.474-34.077
	c-7.573,0.902-13.523,7.392-13.523,15.326c0,8.654,7.032,15.506,15.506,15.506c7.393,0,13.703-5.229,15.145-12.261
	c-0.337,8.928-7.421,17.129-18.03,17.129c0.648,1.295-0.228,4.68-3.245,5.229v34.618c5.615,0.535,8.663,7.091,5.229,11.9
	c1.322,1.851,1.897,4.382,0.992,6.965c21.416,4.087,37.593,22.891,37.593,45.503v56.254
	C235.497,223.299,163.145,223.299,152.982,223.299z M1997.472,223.299v-56.254c0-23.689,17.755-43.196,40.688-45.983
	c-0.663-2.393-0.122-4.714,1.143-6.485c-3.436-4.81-0.386-11.365,5.229-11.9V68.059c-3.016-0.548-4.509-4.204-2.525-6.851
	c-16.625-7.824-12.528-34.077,8.475-34.077c-7.572,0.902-13.523,7.392-13.523,15.326c0,8.654,7.032,15.506,15.506,15.506
	c7.393,0,13.703-5.229,15.145-12.261c-0.337,8.928-7.421,17.129-18.03,17.129c0.677,1.352-0.281,4.69-3.245,5.229v34.618
	c5.615,0.535,8.663,7.092,5.229,11.9c1.322,1.851,1.896,4.382,0.991,6.965c21.416,4.087,37.593,22.891,37.593,45.503v56.254
	C2080.13,223.299,2007.564,223.299,1997.472,223.299z M519.356,744.191v-20.374h1.877c-0.224-1.689,0.243-3.191,1.008-4.147
	c-2.353-2.942-0.869-8.411,3.967-9.015v-26.144c-2.65-0.662-3.162-3.87-1.803-5.229c-12.688-6.09-9.19-25.783,6.491-25.783
	c-5.589,0.721-10.097,5.589-10.097,11.539c0,6.311,5.049,11.539,11.539,11.539c5.589,0,10.277-3.966,11.359-9.195
	c-0.373,7.462-6.7,13.161-14.063,13.161c0.18,0.18,0.18,0.541,0.18,0.721c0,1.623-1.082,2.885-2.525,3.245v26.144
	c4.811,0.601,6.332,6.059,3.967,9.015c1.141,1.427,1.64,4.177,0.18,6.433v18.088C527.285,744.191,524.166,744.191,519.356,744.191z
	 M543.696,667.383C543.696,667.383,543.696,667.383,543.696,667.383C543.696,667.383,543.696,667.384,543.696,667.383z
	 M1562.222,1065.309h35.7v1.262h52.829v-1.262h31.192v1.262h52.828v-1.262h34.618v1.262h52.828v-1.262h35.88V952.44h2.705v-28.488
	h-301.284v28.488h2.705V1065.309z M1797.156,971.552c12.081,0.721,21.636,10.818,21.636,23.079v1.803h-21.636V971.552z
	 M1797.156,999.319h21.636v14.064h-21.636V999.319z M1797.156,1016.087h21.636v14.063h-21.636V1016.087z M1797.156,1033.035h21.636
	v14.064h-21.636V1033.035z M1797.156,1049.983h21.636v13.162h-21.636V1049.983z M1772.815,994.631
	c0-12.261,9.557-22.357,21.636-23.079v24.882h-21.636V994.631z M1772.635,999.319h21.636v14.064h-21.636V999.319z
	 M1772.635,1016.087h21.636v14.063h-21.636V1016.087z M1772.635,1033.035h21.636v14.064h-21.636V1033.035z M1772.635,1049.983
	h21.636v13.162h-21.636V1049.983z M1709.709,971.552c12.081,0.721,21.636,10.818,21.636,23.079v1.803h-21.636V971.552z
	 M1709.709,999.319h21.636v14.064h-21.636V999.319z M1709.709,1016.087h21.636v14.063h-21.636V1016.087z M1709.709,1033.035h21.636
	v14.064h-21.636V1033.035z M1709.709,1049.983h21.636v13.162h-21.636V1049.983z M1685.369,994.631
	c0-12.261,9.557-22.357,21.636-23.079v24.882h-21.636V994.631z M1685.369,999.319h21.636v14.064h-21.636V999.319z
	 M1685.369,1016.087h21.636v14.063h-21.636V1016.087z M1685.369,1033.035h21.636v14.064h-21.636V1033.035z M1685.369,1049.983
	h21.636v13.162h-21.636V1049.983z M1625.689,971.552c12.08,0.721,21.636,10.818,21.636,23.079v1.803h-21.636V971.552z
	 M1625.689,999.319h21.636v14.064h-21.636V999.319z M1625.689,1016.087h21.636v14.063h-21.636V1016.087z M1625.689,1033.035h21.636
	v14.064h-21.636V1033.035z M1625.689,1049.983h21.636v13.162h-21.636V1049.983z M1601.348,994.631
	c0-12.261,9.556-22.357,21.636-23.079v24.882h-21.636V994.631z M1601.168,999.319h21.636v14.064h-21.636V999.319z
	 M1601.168,1016.087h21.636v14.063h-21.636V1016.087z M1601.168,1033.035h21.636v14.064h-21.636V1033.035z M1601.168,1049.983
	h21.636v13.162h-21.636V1049.983z M750.322,772.138v-62.745c0-189.837,143.294-346.05,327.46-366.728
	c10.29-1.534,20.743-2.35,31.341-2.35h-13.342v-50.124h5.136c-0.737-3.718,0.019-7.856,2.436-10.999
	c-6.611-9.55-0.204-20.97,9.556-21.997v-63.827c-5.218-1.044-8.554-7.407-4.508-12.801c-31.116-14.323-22.937-62.925,15.506-62.925
	c-14.064,1.803-24.882,13.703-24.882,28.307c0,15.686,12.801,28.488,28.488,28.488c13.523,0,25.062-9.736,27.766-22.538
	c-0.709,17.384-14.796,31.913-32.995,31.913c0,0.541,0.18,1.082,0.18,1.803c0,3.786-2.704,7.032-6.311,7.753v63.827
	c10.73,1.129,15.81,13.866,9.556,21.997c3.797,5.485,3.458,12.021-0.181,16.742v44.381c-6.045,0-10.65,0-16.407,0
	c1.475,0,2.942,0.044,4.412,0.074c206.391-3.221,374.761,163.071,374.943,369.004v62.745
	C1470.923,772.138,757.769,772.138,750.322,772.138z M378.36,920.346v-25.603c0-88.72,75.686-151.98,148.186-150.492
	c84.563-1.307,152.917,66.883,153.098,150.492v25.603C672.448,920.346,381.359,920.346,378.36,920.346z M1559.518,920.346v-25.603
	c0-77.447,58.552-141.247,133.779-149.598c4.148-0.612,8.357-0.954,12.626-0.954h-5.409v-20.374h1.697
	c-0.223-1.677,0.235-3.181,1.008-4.147c-2.355-2.944-0.867-8.411,3.967-9.015v-26.144c-2.647-0.662-3.163-3.87-1.803-5.229
	c-12.69-6.091-9.189-25.783,6.491-25.783c-5.59,0.721-10.097,5.589-10.097,11.539c0,6.311,5.048,11.539,11.539,11.539
	c5.589,0,10.276-3.965,11.359-9.193c-0.192,7.615-6.699,13.16-14.063,13.16c0.181,0.18,0.181,0.541,0.181,0.721
	c0,1.623-1.082,2.885-2.525,3.245v26.144c4.822,0.603,6.323,6.069,3.967,9.015c1.107,1.384,1.571,3.924,0.361,6.103v18.419
	c-2.481,0-4.323,0-6.671,0c93.157,0,154.708,71.86,154.878,150.552v25.603C1853.606,920.346,1562.517,920.346,1559.518,920.346z
	 M2182.281,1067.112v-62.384h-3.426v-55.894l5.95-5.95l-9.736-9.736l-9.736,9.736l5.949,5.95v55.894h-11.9v-55.894l5.951-5.95
	l-9.736-9.736l-9.737,9.736l5.95,5.95v55.894h-11.9v-55.894l5.95-5.95l-9.736-9.736l-9.736,9.736l5.95,5.95v55.894h-11.899v-55.894
	l5.949-5.95l-5.949-5.95V622.487h8.474V432.629h-1.984v-33.176l3.427-3.426l-5.77-5.77l-5.77,5.77l3.427,3.426v33.176h-6.852
	v-33.176l3.426-3.426l-5.769-5.77l-5.77,5.77l3.426,3.426v33.176h-6.851v-33.176l3.426-3.426l-5.769-5.77l-5.77,5.77l3.426,3.426
	v33.176h-6.851v-33.176l3.426-3.426l-5.59-5.589V231.773h-92.495v158.486l-5.77,5.77l3.606,3.426v33.176h-7.032v-33.176l3.426-3.426
	l-5.769-5.77l-5.77,5.77l3.606,3.426v33.176h-7.031v-33.176l3.426-3.426l-5.77-5.77l-5.769,5.77l3.606,3.426v33.176h-7.032v-33.176
	l3.426-3.426l-5.77-5.77l-5.769,5.77l3.606,3.426v33.176h-2.164v189.858h4.147v312.644l-1.983-1.983l-9.737,9.736l5.951,5.95v55.894
	h-11.9v-55.894l5.95-5.95l-9.736-9.736l-9.736,9.736l5.95,5.95v55.894h-11.899v-55.894l5.95-5.95l-9.736-9.736l-9.736,9.736
	l5.95,5.95v55.894h-11.9v-55.894l5.951-5.95l-9.737-9.736l-9.736,9.736l5.95,5.95v55.894h-3.606v62.384h-413.253V850.93h6.671
	v-69.957H750.323v69.957h6.491v217.985H337.972v-64.188h-3.426v-55.894l5.77-5.95l-9.736-9.736l-9.736,9.736l5.95,5.95v55.894
	h-11.72v-55.894l5.77-5.95l-9.737-9.736l-9.737,9.736l5.951,5.95v55.894h-11.72v-55.894l5.769-5.95l-9.736-9.736l-9.736,9.736
	l5.95,5.95v55.894h-11.72v-55.894l5.77-5.95l-5.77-5.77V622.487h8.294V432.629h-1.983v-33.176l3.426-3.426l-5.77-5.77l-5.77,5.77
	l3.606,3.426v33.176h-7.032v-33.176l3.426-3.426l-5.769-5.77l-5.77,5.77l3.606,3.426v33.176h-7.032v-33.176l3.426-3.426l-5.77-5.77
	l-5.77,5.77l3.606,3.426v33.176h-7.032v-33.176l3.426-3.426l-5.59-5.589V231.773h-92.495v158.666l-5.59,5.589l3.426,3.426v33.176
	h-7.032v-33.176l3.606-3.426l-5.77-5.77l-5.769,5.77l3.426,3.426v33.176h-7.032v-33.176l3.606-3.426l-5.77-5.77l-5.77,5.77
	l3.426,3.426v33.176h-7.032v-33.176l3.606-3.426l-5.77-5.77l-5.77,5.77l3.426,3.426v33.176h-1.983v189.858h4.147v312.824
	l-2.164-2.164l-9.737,9.736l5.95,5.95v55.894h-11.72v-55.894l5.769-5.95l-9.736-9.736l-9.736,9.736l5.95,5.95v55.894h-11.72v-55.894
	l5.77-5.95l-9.736-9.736l-9.737,9.736l5.95,5.95v55.894H61.93v-55.894l5.77-5.95l-9.737-9.736l-9.736,9.736l5.95,5.95v55.894H50.75
	v64.188H36.507v558.215h818.752v-1.803H993.91c0,0-9.953-228.714,0-304.079c4-30.286,42.237-109.71,124.048-128.736
	c80.355,18.687,120.005,96.557,124.048,128.735c9.478,75.427,6.956,302.427,6.956,302.427c157.907,2.143-3.833,1.653,940.531,1.653
	v-558.215H2182.281z M202.385,278.111c12.535,0.793,25.783,10.47,25.783,29.209h-25.783V278.111z M202.385,310.745h25.783v16.588
	h-25.783V310.745z M202.385,330.759h25.783v16.588h-25.783V330.759z M202.385,350.592h25.783v16.588h-25.783V350.592z
	 M202.385,370.605h25.783v15.506h-25.783V370.605z M199.861,687.396c12.535,0.793,25.783,10.47,25.783,29.209h-25.783V687.396z
	 M199.861,720.031h25.783v16.588h-25.783V720.031z M199.861,739.864h25.783v16.588h-25.783V739.864z M199.861,759.878h25.783v16.588
	h-25.783V759.878z M199.861,779.891h25.783v15.506h-25.783V779.891z M199.139,350.592v16.588h-25.783v-16.588H199.139z
	 M173.356,347.347v-16.588h25.783v16.588H173.356z M199.139,370.605v15.506h-25.783v-15.506H199.139z M197.337,943.245h25.783
	v16.588h-25.783V943.245z M197.337,939.819v-16.588h25.783v16.588H197.337z M197.337,919.805v-16.588h25.783v16.588H197.337z
	 M197.337,899.792v-29.209c12.535,0.793,25.783,10.47,25.783,29.209H197.337z M199.139,327.333h-25.783v-16.588h25.783V327.333z
	 M173.176,305.516c0-14.604,11.359-26.324,25.783-27.226V307.5h-25.783V305.516z M168.127,897.989
	c0-14.604,11.359-26.324,25.783-27.226v29.209h-25.783V897.989z M168.308,959.833v-16.588h25.783v16.588H168.308z M194.091,963.078
	v15.506h-25.783v-15.506H194.091z M168.308,939.819v-16.588h25.783v16.588H168.308z M168.308,919.805v-16.588h25.783v16.588H168.308
	z M194.271,1575.023h-39.486v-23.98h39.486V1575.023z M194.271,1545.994h-39.486v-25.603h39.486V1545.994z M194.271,1515.343
	h-39.486v-25.603h39.486V1515.343z M194.271,1484.692h-39.486v-25.603h39.486V1484.692z M194.271,1454.04h-39.486v-3.246
	c0-22.357,17.489-40.568,39.486-41.83V1454.04z M194.271,1322.961h-39.486v-23.98h39.486V1322.961z M194.271,1293.932h-39.486
	v-25.603h39.486V1293.932z M194.271,1263.281h-39.486v-25.603h39.486V1263.281z M194.271,1232.629h-39.486v-25.603h39.486V1232.629z
	 M194.271,1201.978h-39.486v-3.245c0-22.358,17.489-40.568,39.486-41.83V1201.978z M196.615,795.397h-25.783v-15.506h25.783V795.397
	z M196.615,776.465h-25.783v-16.588h25.783V776.465z M196.615,756.452h-25.783v-16.588h25.783V756.452z M196.615,736.619h-25.783
	v-16.588h25.783V736.619z M196.615,716.785h-25.783v-1.983c0-14.604,11.359-26.324,25.783-27.226V716.785z M197.337,963.078h25.783
	v15.506h-25.783V963.078z M238.806,1575.023H199.32v-23.98h39.486V1575.023z M238.806,1545.994H199.32v-25.603h39.486V1545.994z
	 M238.806,1515.343H199.32v-25.603h39.486V1515.343z M238.806,1484.692H199.32v-25.603h39.486V1484.692z M238.806,1454.04H199.32
	v-45.076c21.997,1.262,39.486,19.473,39.486,41.83V1454.04z M238.806,1322.961H199.32v-23.98h39.486V1322.961z M238.806,1293.932
	H199.32v-25.603h39.486V1293.932z M238.806,1263.281H199.32v-25.603h39.486V1263.281z M238.806,1232.629H199.32v-25.603h39.486
	V1232.629z M238.806,1201.978H199.32v-45.075c21.997,1.262,39.486,19.473,39.486,41.83V1201.978z M360.329,1575.023h-39.486v-23.98
	h39.486V1575.023z M360.329,1545.994h-39.486v-25.603h39.486V1545.994z M360.329,1515.343h-39.486v-25.603h39.486V1515.343z
	 M360.329,1484.692h-39.486v-25.603h39.486V1484.692z M360.329,1454.04h-39.486v-3.246c0-22.357,17.489-40.568,39.486-41.83V1454.04
	z M360.329,1322.961h-39.486v-23.98h39.486V1322.961z M360.329,1293.932h-39.486v-25.603h39.486V1293.932z M360.329,1263.281
	h-39.486v-25.603h39.486V1263.281z M360.329,1232.629h-39.486v-25.603h39.486V1232.629z M360.329,1201.978h-39.486v-3.245
	c0-22.358,17.489-40.568,39.486-41.83V1201.978z M405.044,1575.023h-39.486v-23.98h39.486V1575.023z M405.044,1545.994h-39.486
	v-25.603h39.486V1545.994z M405.044,1515.343h-39.486v-25.603h39.486V1515.343z M405.044,1484.692h-39.486v-25.603h39.486V1484.692z
	 M405.044,1454.04h-39.486v-45.076c21.997,1.262,39.486,19.473,39.486,41.83V1454.04z M405.044,1322.961h-39.486v-23.98h39.486
	V1322.961z M405.044,1293.932h-39.486v-25.603h39.486V1293.932z M405.044,1263.281h-39.486v-25.603h39.486V1263.281z
	 M405.044,1232.629h-39.486v-25.603h39.486V1232.629z M405.044,1201.978h-39.486v-45.075c21.997,1.262,39.486,19.473,39.486,41.83
	V1201.978z M526.568,1575.023h-39.486v-23.98h39.486V1575.023z M526.568,1545.994h-39.486v-25.603h39.486V1545.994z
	 M526.568,1515.343h-39.486v-25.603h39.486V1515.343z M526.568,1484.692h-39.486v-25.603h39.486V1484.692z M526.568,1454.04h-39.486
	v-3.246c0-22.357,17.49-40.568,39.486-41.83V1454.04z M526.568,1322.961h-39.486v-23.98h39.486V1322.961z M526.568,1293.932h-39.486
	v-25.603h39.486V1293.932z M526.568,1263.281h-39.486v-25.603h39.486V1263.281z M526.568,1232.629h-39.486v-25.603h39.486V1232.629z
	 M526.568,1201.978h-39.486v-3.245c0-22.358,17.49-40.568,39.486-41.83V1201.978z M571.102,1575.023h-39.486v-23.98h39.486V1575.023
	z M571.102,1545.994h-39.486v-25.603h39.486V1545.994z M571.102,1515.343h-39.486v-25.603h39.486V1515.343z M571.102,1484.692
	h-39.486v-25.603h39.486V1484.692z M571.102,1454.04h-39.486v-45.076c21.997,1.262,39.486,19.473,39.486,41.83V1454.04z
	 M571.102,1322.961h-39.486v-23.98h39.486V1322.961z M571.102,1293.932h-39.486v-25.603h39.486V1293.932z M571.102,1263.281h-39.486
	v-25.603h39.486V1263.281z M571.102,1232.629h-39.486v-25.603h39.486V1232.629z M571.102,1201.978h-39.486v-45.075
	c21.997,1.262,39.486,19.473,39.486,41.83V1201.978z M692.626,1575.023H653.14v-23.98h39.486V1575.023z M692.626,1545.994H653.14
	v-25.603h39.486V1545.994z M692.626,1515.343H653.14v-25.603h39.486V1515.343z M692.626,1484.692H653.14v-25.603h39.486V1484.692z
	 M692.626,1454.04H653.14v-3.246c0-22.357,17.49-40.568,39.486-41.83V1454.04z M692.626,1322.961H653.14v-23.98h39.486V1322.961z
	 M692.626,1293.932H653.14v-25.603h39.486V1293.932z M692.626,1263.281H653.14v-25.603h39.486V1263.281z M692.626,1232.629H653.14
	v-25.603h39.486V1232.629z M692.626,1201.978H653.14v-3.245c0-22.358,17.49-40.568,39.486-41.83V1201.978z M737.161,1575.023
	h-39.486v-23.98h39.486V1575.023z M737.161,1545.994h-39.486v-25.603h39.486V1545.994z M737.161,1515.343h-39.486v-25.603h39.486
	V1515.343z M737.161,1484.692h-39.486v-25.603h39.486V1484.692z M737.161,1454.04h-39.486v-45.076
	c21.997,1.262,39.486,19.473,39.486,41.83V1454.04z M737.161,1322.961h-39.486v-23.98h39.486V1322.961z M737.161,1293.932h-39.486
	v-25.603h39.486V1293.932z M737.161,1263.281h-39.486v-25.603h39.486V1263.281z M737.161,1232.629h-39.486v-25.603h39.486V1232.629z
	 M737.161,1201.978h-39.486v-45.075c21.997,1.262,39.486,19.473,39.486,41.83V1201.978z M786.383,888.613v58.778h-21.817
	C764.566,910.626,775.258,890.274,786.383,888.613z M786.563,1104.975h-21.816v-31.192h21.816V1104.975z M786.563,1067.292h-21.816
	v-33.356h21.816V1067.292z M786.563,1027.265h-21.816V993.91h21.816V1027.265z M786.563,987.419h-21.816v-33.356h21.816V987.419z
	 M811.084,1104.975h-21.817v-31.192h21.817V1104.975z M811.084,1067.292h-21.817v-33.356h21.817V1067.292z M811.084,1027.265
	h-21.817V993.91h21.817V1027.265z M811.084,987.419h-21.817v-33.356h21.817V987.419z M811.084,947.392h-21.817v-58.778
	c12.261,1.803,21.817,25.423,21.817,54.631V947.392z M876.895,1104.975h-34.077v-31.192h34.077V1104.975z M876.895,1067.292h-34.077
	v-33.356h34.077V1067.292z M876.895,1027.265h-34.077V993.91h34.077V1027.265z M876.895,987.419h-34.077v-33.356h34.077V987.419z
	 M877.075,947.392h-34.077c0-40.367,18.848-57.342,34.077-58.778V947.392z M915.479,1104.975h-34.077v-31.192h34.077V1104.975z
	 M915.479,1067.292h-34.077v-33.356h34.077V1067.292z M915.479,1027.265h-34.077V993.91h34.077V1027.265z M915.479,987.419h-34.077
	v-33.356h34.077V987.419z M915.479,947.392h-34.077v-58.778C896.688,890.069,915.479,907.329,915.479,947.392z M984.355,1104.975
	h-40.207v-31.192h40.207V1104.975z M984.355,1067.292h-40.207v-33.356h40.207V1067.292z M984.355,1027.265h-40.207V993.91h40.207
	V1027.265z M984.355,987.419h-40.207v-33.356h40.207V987.419z M984.535,947.392h-40.207v-4.147c0-29.209,17.67-52.828,40.207-54.631
	V947.392z M1029.971,1104.975h-40.207v-31.192h40.207V1104.975z M1029.971,1067.292h-40.207v-33.356h40.207V1067.292z
	 M1029.971,1027.265h-40.207V993.91h40.207V1027.265z M1029.971,987.419h-40.207v-33.356h40.207V987.419z M1029.971,947.392h-40.207
	v-58.778c22.357,1.803,40.207,25.423,40.207,54.631V947.392z M1110.926,1104.975h-54.631v-31.192h54.631V1104.975z
	 M1110.926,1067.292h-54.631v-33.356h54.631V1067.292z M1110.926,1027.265h-54.631V993.91h54.631V1027.265z M1110.926,987.419
	h-54.631v-33.356h54.631V987.419z M1110.927,947.392h-54.632v-4.147c0-29.209,24.16-52.828,54.632-54.631V947.392z
	 M1172.59,1104.975h-54.632v-31.192h54.632V1104.975z M1172.59,1067.292h-54.632v-33.356h54.632V1067.292z M1172.59,1027.265
	h-54.632V993.91h54.632V1027.265z M1172.59,987.419h-54.632v-33.356h54.632V987.419z M1172.59,947.392h-54.632v-58.778
	c30.471,1.803,54.632,25.423,54.632,54.631V947.392z M1248.858,1104.975h-40.208v-31.192h40.208V1104.975z M1248.858,1067.292
	h-40.208v-33.356h40.208V1067.292z M1248.858,1027.265h-40.208V993.91h40.208V1027.265z M1248.858,987.419h-40.208v-33.356h40.208
	V987.419z M1249.038,947.392h-40.207v-4.147c0-29.209,17.85-52.828,40.207-54.631V947.392z M1294.294,1104.975h-40.207v-31.192
	h40.207V1104.975z M1294.294,1067.292h-40.207v-33.356h40.207V1067.292z M1294.294,1027.265h-40.207V993.91h40.207V1027.265z
	 M1294.294,987.419h-40.207v-33.356h40.207V987.419z M1294.294,947.392h-40.207v-58.778c22.538,1.803,40.207,25.423,40.207,54.631
	V947.392z M1357.039,1104.975h-34.077v-31.192h34.077V1104.975z M1357.039,1067.292h-34.077v-33.356h34.077V1067.292z
	 M1357.039,1027.265h-34.077V993.91h34.077V1027.265z M1357.039,987.419h-34.077v-33.356h34.077V987.419z M1357.219,947.392h-34.077
	c0-40.031,18.799-57.323,34.077-58.778V947.392z M1395.623,1104.975h-34.077v-31.192h34.077V1104.975z M1395.623,1067.292h-34.077
	v-33.356h34.077V1067.292z M1395.623,1027.265h-34.077V993.91h34.077V1027.265z M1395.623,987.419h-34.077v-33.356h34.077V987.419z
	 M1395.623,947.392h-34.077v-58.778C1376.809,890.053,1395.623,907.014,1395.623,947.392z M1449.354,1104.975h-21.817v-31.192
	h21.817V1104.975z M1449.354,1067.292h-21.817v-33.356h21.817V1067.292z M1449.354,1027.265h-21.817V993.91h21.817V1027.265z
	 M1449.354,987.419h-21.817v-33.356h21.817V987.419z M1449.354,947.392h-21.817v-4.147c0-29.209,9.556-52.828,21.817-54.631V947.392
	z M1474.055,1104.975h-21.817v-31.192h21.817V1104.975z M1474.055,1067.292h-21.817v-33.356h21.817V1067.292z M1474.055,1027.265
	h-21.817V993.91h21.817V1027.265z M1474.055,987.419h-21.817v-33.356h21.817V987.419z M1474.055,947.392h-21.817v-58.778
	c12.08,1.803,21.817,25.423,21.817,54.631V947.392z M1654.898,1205.224h39.486v25.603h-39.486V1205.224z M1654.898,1235.875h39.486
	v25.603h-39.486V1235.875z M1654.898,1266.526h39.486v25.603h-39.486V1266.526z M1654.898,1297.177h39.486v23.98h-39.486V1297.177z
	 M1528.326,1573.22h-39.486v-23.98h39.486V1573.22z M1528.326,1544.191h-39.486v-25.603h39.486V1544.191z M1528.326,1513.54h-39.486
	v-25.603h39.486V1513.54z M1528.326,1482.889h-39.486v-25.603h39.486V1482.889z M1528.326,1452.237h-39.486v-3.245
	c0-22.357,17.49-40.568,39.486-41.83V1452.237z M1528.326,1321.158h-39.486v-23.98h39.486V1321.158z M1528.326,1292.129h-39.486
	v-25.603h39.486V1292.129z M1528.326,1261.478h-39.486v-25.603h39.486V1261.478z M1528.326,1230.826h-39.486v-25.603h39.486
	V1230.826z M1528.326,1200.175h-39.486v-3.245c0-22.358,17.49-40.568,39.486-41.83V1200.175z M1572.86,1573.22h-39.486v-23.98
	h39.486V1573.22z M1572.86,1544.191h-39.486v-25.603h39.486V1544.191z M1572.86,1513.54h-39.486v-25.603h39.486V1513.54z
	 M1572.86,1482.889h-39.486v-25.603h39.486V1482.889z M1572.86,1452.237h-39.486v-44.895c21.997,1.262,39.486,19.472,39.486,41.83
	V1452.237z M1572.86,1321.158h-39.486v-23.98h39.486V1321.158z M1572.86,1292.129h-39.486v-25.603h39.486V1292.129z
	 M1572.86,1261.478h-39.486v-25.603h39.486V1261.478z M1572.86,1230.826h-39.486v-25.603h39.486V1230.826z M1572.86,1200.175
	h-39.486V1155.1c21.997,1.262,39.486,19.473,39.486,41.83V1200.175z M1694.384,1573.22h-39.486v-23.98h39.486V1573.22z
	 M1694.384,1544.191h-39.486v-25.603h39.486V1544.191z M1694.384,1513.54h-39.486v-25.603h39.486V1513.54z M1694.384,1482.889
	h-39.486v-25.603h39.486V1482.889z M1694.564,1452.237h-39.486v-3.245c0-22.357,17.49-40.568,39.486-41.83V1452.237z
	 M1694.564,1200.175h-39.486v-3.245c0-22.358,17.49-40.568,39.486-41.83V1200.175z M1739.099,1573.22h-39.487v-23.98h39.487V1573.22
	z M1739.099,1544.191h-39.487v-25.603h39.487V1544.191z M1739.099,1513.54h-39.487v-25.603h39.487V1513.54z M1739.099,1482.889
	h-39.487v-25.603h39.487V1482.889z M1739.099,1452.237h-39.487v-44.895c21.997,1.262,39.487,19.472,39.487,41.83V1452.237z
	 M1739.099,1321.158h-39.487v-23.98h39.487V1321.158z M1739.099,1292.129h-39.487v-25.603h39.487V1292.129z M1739.099,1261.478
	h-39.487v-25.603h39.487V1261.478z M1739.099,1230.826h-39.487v-25.603h39.487V1230.826z M1739.099,1200.175h-39.487V1155.1
	c21.997,1.262,39.487,19.473,39.487,41.83V1200.175z M1860.623,1573.22h-39.486v-23.98h39.486V1573.22z M1860.623,1544.191h-39.486
	v-25.603h39.486V1544.191z M1860.623,1513.54h-39.486v-25.603h39.486V1513.54z M1860.623,1482.889h-39.486v-25.603h39.486V1482.889z
	 M1860.623,1452.237h-39.487v-3.245c0-22.357,17.49-40.568,39.487-41.83V1452.237z M1860.623,1321.158h-39.486v-23.98h39.486
	V1321.158z M1860.623,1292.129h-39.486v-25.603h39.486V1292.129z M1860.623,1261.478h-39.486v-25.603h39.486V1261.478z
	 M1860.623,1230.826h-39.486v-25.603h39.486V1230.826z M1860.623,1200.175h-39.487v-3.245c0-22.358,17.49-40.568,39.487-41.83
	V1200.175z M1905.157,1573.22h-39.486v-23.98h39.486V1573.22z M1905.157,1544.191h-39.486v-25.603h39.486V1544.191z
	 M1905.157,1513.54h-39.486v-25.603h39.486V1513.54z M1905.157,1482.889h-39.486v-25.603h39.486V1482.889z M1905.157,1452.237
	h-39.486v-44.895c21.997,1.262,39.486,19.472,39.486,41.83V1452.237z M1905.157,1321.158h-39.486v-23.98h39.486V1321.158z
	 M1905.157,1292.129h-39.486v-25.603h39.486V1292.129z M1905.157,1261.478h-39.486v-25.603h39.486V1261.478z M1905.157,1230.826
	h-39.486v-25.603h39.486V1230.826z M1905.157,1200.175h-39.486V1155.1c21.997,1.262,39.486,19.473,39.486,41.83V1200.175z
	 M2044.35,687.396c12.535,0.793,25.783,10.47,25.783,29.209h-25.783V687.396z M2044.35,720.031h25.783v16.588h-25.783V720.031z
	 M2044.35,739.864h25.783v16.588h-25.783V739.864z M2044.35,759.878h25.783v16.588h-25.783V759.878z M2044.35,779.891h25.783v15.506
	h-25.783V779.891z M2043.449,330.759v16.588h-25.783v-16.588H2043.449z M2017.666,327.333v-16.588h25.783v16.588H2017.666z
	 M2043.449,350.592v16.588h-25.783v-16.588H2043.449z M2043.449,370.605v15.506h-25.783v-15.506H2043.449z M2041.646,963.078h25.783
	v15.506h-25.783V963.078z M2041.646,959.833v-16.588h25.783v16.588H2041.646z M2041.646,939.819v-16.588h25.783v16.588H2041.646z
	 M2041.646,919.805v-16.588h25.783v16.588H2041.646z M2041.646,899.792v-29.209c12.535,0.793,25.783,10.47,25.783,29.209H2041.646z
	 M2017.665,305.516c0-14.604,11.36-26.324,25.784-27.226V307.5h-25.784V305.516z M2015.321,714.802
	c0-14.604,11.359-26.324,25.784-27.226v29.209h-25.784V714.802z M2015.321,720.031h25.784v16.588h-25.784V720.031z
	 M2015.321,739.864h25.784v16.588h-25.784V739.864z M2015.321,759.878h25.784v16.588h-25.784V759.878z M2015.321,779.891h25.784
	v15.506h-25.784V779.891z M2012.617,897.989c0-14.604,11.36-26.324,25.784-27.226v29.209h-25.784V897.989z M2012.617,903.218h25.784
	v16.588h-25.784V903.218z M2012.617,923.231h25.784v16.588h-25.784V923.231z M2012.617,943.245h25.784v16.588h-25.784V943.245z
	 M2012.617,963.078h25.784v15.506h-25.784V963.078z M2026.681,1573.22h-39.487v-23.98h39.487V1573.22z M2026.681,1544.191h-39.487
	v-25.603h39.487V1544.191z M2026.681,1513.54h-39.487v-25.603h39.487V1513.54z M2026.681,1482.889h-39.487v-25.603h39.487V1482.889z
	 M2026.681,1452.237h-39.487v-3.245c0-22.357,17.49-40.568,39.487-41.83V1452.237z M2026.681,1321.158h-39.487v-23.98h39.487
	V1321.158z M2026.681,1292.129h-39.487v-25.603h39.487V1292.129z M2026.681,1261.478h-39.487v-25.603h39.487V1261.478z
	 M2026.681,1230.826h-39.487v-25.603h39.487V1230.826z M2026.681,1200.175h-39.487v-3.245c0-22.358,17.49-40.568,39.487-41.83
	V1200.175z M2071.215,1573.22h-39.486v-23.98h39.486V1573.22z M2071.215,1544.191h-39.486v-25.603h39.486V1544.191z
	 M2071.215,1513.54h-39.486v-25.603h39.486V1513.54z M2071.215,1482.889h-39.486v-25.603h39.486V1482.889z M2071.215,1452.237
	h-39.486v-44.895c21.997,1.262,39.486,19.472,39.486,41.83V1452.237z M2071.215,1321.158h-39.486v-23.98h39.486V1321.158z
	 M2071.215,1292.129h-39.486v-25.603h39.486V1292.129z M2071.215,1261.478h-39.486v-25.603h39.486V1261.478z M2071.215,1230.826
	h-39.486v-25.603h39.486V1230.826z M2071.215,1200.175h-39.486V1155.1c21.997,1.262,39.486,19.473,39.486,41.83V1200.175z
	 M2072.477,386.111h-25.784v-15.506h25.784V386.111z M2072.477,367.18h-25.784v-16.588h25.784V367.18z M2072.477,347.347h-25.784
	v-16.588h25.784V347.347z M2072.477,327.333h-25.784v-16.588h25.784V327.333z M2072.477,307.32h-25.784v-29.209
	c14.245,0.901,25.784,12.801,25.784,27.226V307.32z M1724.675,667.383C1724.674,667.383,1724.674,667.385,1724.675,667.383
	L1724.675,667.383z"/>
</svg>
